<svg width="17" height="17" viewBox="0 0 17 17" fill="none" xmlns="http://www.w3.org/2000/svg">
<path d="M2.79998 12.6C2.60164 12.6 2.43551 12.5328 2.30158 12.3984C2.16764 12.264 2.10044 12.0978 2.09998 11.9C2.09951 11.7021 2.16671 11.536 2.30158 11.4016C2.43644 11.2672 2.60258 11.2 2.79998 11.2H14C14.1983 11.2 14.3647 11.2672 14.4991 11.4016C14.6335 11.536 14.7004 11.7021 14.7 11.9C14.6995 12.0978 14.6323 12.2642 14.4984 12.3991C14.3644 12.5339 14.1983 12.6009 14 12.6H2.79998ZM2.79998 9.09995C2.60164 9.09995 2.43551 9.03275 2.30158 8.89835C2.16764 8.76395 2.10044 8.59782 2.09998 8.39995C2.09951 8.20208 2.16671 8.03595 2.30158 7.90155C2.43644 7.76715 2.60258 7.69995 2.79998 7.69995H14C14.1983 7.69995 14.3647 7.76715 14.4991 7.90155C14.6335 8.03595 14.7004 8.20208 14.7 8.39995C14.6995 8.59782 14.6323 8.76418 14.4984 8.89905C14.3644 9.03392 14.1983 9.10088 14 9.09995H2.79998ZM2.79998 5.59995C2.60164 5.59995 2.43551 5.53275 2.30158 5.39835C2.16764 5.26395 2.10044 5.09782 2.09998 4.89995C2.09951 4.70208 2.16671 4.53595 2.30158 4.40155C2.43644 4.26715 2.60258 4.19995 2.79998 4.19995H14C14.1983 4.19995 14.3647 4.26715 14.4991 4.40155C14.6335 4.53595 14.7004 4.70208 14.7 4.89995C14.6995 5.09782 14.6323 5.26418 14.4984 5.39905C14.3644 5.53392 14.1983 5.60088 14 5.59995H2.79998Z" fill="black"/>
</svg>
