<svg width="17" height="17" viewBox="0 0 17 17" fill="none" xmlns="http://www.w3.org/2000/svg">
<path d="M8.39999 9.38011L4.96999 12.8101C4.84165 12.9384 4.67832 13.0026 4.47999 13.0026C4.28165 13.0026 4.11832 12.9384 3.98999 12.8101C3.86165 12.6818 3.79749 12.5184 3.79749 12.3201C3.79749 12.1218 3.86165 11.9584 3.98999 11.8301L7.41999 8.40011L3.98999 4.97011C3.86165 4.84177 3.79749 4.67844 3.79749 4.48011C3.79749 4.28177 3.86165 4.11844 3.98999 3.99011C4.11832 3.86177 4.28165 3.79761 4.47999 3.79761C4.67832 3.79761 4.84165 3.86177 4.96999 3.99011L8.39999 7.42011L11.83 3.99011C11.9583 3.86177 12.1217 3.79761 12.32 3.79761C12.5183 3.79761 12.6817 3.86177 12.81 3.99011C12.9383 4.11844 13.0025 4.28177 13.0025 4.48011C13.0025 4.67844 12.9383 4.84177 12.81 4.97011L9.37998 8.40011L12.81 11.8301C12.9383 11.9584 13.0025 12.1218 13.0025 12.3201C13.0025 12.5184 12.9383 12.6818 12.81 12.8101C12.6817 12.9384 12.5183 13.0026 12.32 13.0026C12.1217 13.0026 11.9583 12.9384 11.83 12.8101L8.39999 9.38011Z" fill="black"/>
</svg>
